<svg width="60" height="60" viewBox="0 0 60 60" fill="none" xmlns="http://www.w3.org/2000/svg">
<rect width="60" height="60" fill="black"/>
<path fill-rule="evenodd" clip-rule="evenodd" d="M51 31.0371C45.9015 33.5456 41.5714 34.4538 40.75 33.0311C39.7835 31.3571 44.0405 27.0899 50.2583 23.5C50.5063 23.3568 50.7536 23.2169 51 23.0803V20H37C36.4477 20 36 20.4477 36 21V39C36 39.5523 36.4477 40 37 40H51V31.0371Z" fill="white"/>
<path fill-rule="evenodd" clip-rule="evenodd" d="M17.1124 20H9C8.44772 20 8 20.4477 8 21V40H8.88786C12.1277 35.0473 15.5688 31.9057 17.0311 32.75C18.1637 33.4039 17.8191 36.2814 16.3659 40H19.0333C19.4742 39.1048 19.9645 38.1859 20.5 37.2583C24.0899 31.0405 28.3571 26.7835 30.0311 27.75C31.6369 28.6771 30.2733 34.0737 26.9911 40H32V21C32 20.4477 31.5523 20 31 20H24.8206C21.4033 25.5316 17.5911 29.1674 16.0311 28.2667C14.7972 27.5543 15.3165 24.2029 17.1124 20Z" fill="white"/>
</svg>
